<?xml version="1.0" encoding="UTF-8"?>
<svg id="Layer_2" data-name="Layer 2" xmlns="http://www.w3.org/2000/svg" xmlns:xlink="http://www.w3.org/1999/xlink" viewBox="0 0 437.35 425.87">
  <defs>
    <style>
      .cls-1 {
        fill: url(#linear-gradient-2);
      }

      .cls-2 {
        fill: #673d8b;
      }

      .cls-3 {
        fill: url(#linear-gradient-4);
      }

      .cls-4 {
        opacity: .13;
      }

      .cls-5 {
        fill: url(#radial-gradient);
      }

      .cls-6 {
        fill: url(#linear-gradient-3);
      }

      .cls-7 {
        fill: url(#linear-gradient-5);
      }

      .cls-8 {
        fill: url(#radial-gradient-2);
      }

      .cls-9 {
        fill: url(#linear-gradient);
      }
    </style>
    <radialGradient id="radial-gradient" cx="382.94" cy="252.1" fx="382.94" fy="252.1" r="34.38" gradientUnits="userSpaceOnUse">
      <stop offset="0" stop-color="#1b73b2"/>
      <stop offset=".76" stop-color="#185495"/>
      <stop offset="1" stop-color="#174b8c"/>
    </radialGradient>
    <linearGradient id="linear-gradient" x1="100.31" y1="396.92" x2="204.07" y2="396.92" gradientUnits="userSpaceOnUse">
      <stop offset="0" stop-color="#8c2075"/>
      <stop offset="1" stop-color="#20246e"/>
    </linearGradient>
    <radialGradient id="radial-gradient-2" cx="-715.93" cy="98.46" fx="-715.93" fy="98.46" r="54.1" gradientTransform="translate(980.03 -347.12) scale(1.21 4.48)" xlink:href="#radial-gradient"/>
    <linearGradient id="linear-gradient-2" x1="58.63" y1="100.97" x2="304.51" y2="100.97" gradientUnits="userSpaceOnUse">
      <stop offset=".09" stop-color="#20246e"/>
      <stop offset=".78" stop-color="#8c2075"/>
    </linearGradient>
    <linearGradient id="linear-gradient-3" x1="271.84" y1="-4.62" x2="137.61" y2="227.87" gradientUnits="userSpaceOnUse">
      <stop offset=".11" stop-color="#8c2075"/>
      <stop offset="1" stop-color="#20246e"/>
    </linearGradient>
    <linearGradient id="linear-gradient-4" x1="1.95" y1="145.45" x2="326.43" y2="145.45" gradientUnits="userSpaceOnUse">
      <stop offset="0" stop-color="#8c2075"/>
      <stop offset=".48" stop-color="#1b73b2"/>
      <stop offset="1" stop-color="#20246e"/>
    </linearGradient>
    <linearGradient id="linear-gradient-5" x1="156.05" y1="328.52" x2="382.1" y2="328.52" xlink:href="#linear-gradient"/>
  </defs>
  <g id="Layer_1-2" data-name="Layer 1">
    <path class="cls-5" d="M353.98,291.15l48.59-41.67c8.49-7.28,11.55-19.06,7.69-29.55l-2.23-6.89c-14.74,25.94-33.27,51.99-54.05,78.11Z"/>
    <path class="cls-9" d="M156.05,368.35s-35.77.4-53.89-.38c0,0-15.67,71.07,44.26,55.72,59.93-15.35,57.64-46.54,57.64-46.54l-48.01-8.81Z"/>
    <path class="cls-8" d="M229.18,75.02s-89.89-34.37-134.01,17.73c-44.11,52.09-9.88,102.09-9.88,102.09,0,0,73.8-28.33,143.89-119.82Z"/>
    <path class="cls-1" d="M279.84,0s-70.64,12.93-78.72,76.29c-8.08,63.36-142.49,105.98-142.49,105.98l115.61,19.66,81.25-27.82,49.01-76.88-4.62-77.84L279.84,0Z"/>
    <path class="cls-6" d="M279.84,0c2.51,61.06-79.5,177.15-221.21,182.28l61.5,11.76,95.69,8.58,54.21-25.23,27.11-43.44,10.56-52.58-12.52-71.85-15.33-9.52Z"/>
    <path d="M129.63,227.65l-6.83,89.42-11.39-.46-5.33,51.52c-1.34.03-2.65,0-3.92-.15l5.62-51.82-10.47-.46,12.29-88.04c6.66-.13,13.36.07,20.03,0Z"/>
    <path d="M95.03,228.1l-17.76,86.09-10.92-.45-12.32,52.1h-3.8s12.48-52.32,12.48-52.32l-10.48-.7,22.31-82.89c1.94-.29,5.16-1.37,7.51-1.37h8.19c1.02,0,3.28-.39,4.78-.46Z"/>
    <path d="M58.62,233.11l-25.52,75.31c-1.26,1.72-7.87-.22-9.96,1.23l-19.81,53.8c-.83,0-3.66-.19-3.29-1.39l19.46-51.88c.33-1.32-.97-.19-1.07-.19h-9.23c-.14,0-.62.6-1.1.43l.21-1.74,27.9-68.18c.28-.45.53-.72,1-.99,5.75-3.26,14.91-4.87,21.4-6.39Z"/>
    <path d="M408.03,213.04c-.41.97-.59,1.46-.82,1.95-.17.37-.46.7-.83,1.28l-37.14-26.82c-.58-.17-.73.33-1,.7-.68.95-3.36,6.75-3.71,6.99l-64.63-49.16c2.52-4.23,6.06-11.08,8.19-15.48l66.25,44.6c2.19,2.36-4.17,7.29-2.75,9.57l36.45,26.37Z"/>
    <path d="M436.13,127.16c.88.28,1.39,1.19,1.18,2.09l-.26,1.11-.23.87-41.54-13.3-1.61,8.19-1.93-.1-73.18-25.39,2.74-15.47,75.25,20.57c2.17,1.11-1.48,7.3.31,8.8l39.28,12.63Z"/>
    <path d="M149.66,227.19v-.46c1.35.06,2.74,0,4.1,0l5.01,141.58c-1.55.09-2.6.02-4.56,0-.13-5.84.17-11.25.03-17.09"/>
    <path d="M313.55,117.94c.07-.64-.22-2.01.72-2.25,1.11-.28,11.73,5.79,13.68,6.74,32.77,16.07,66.14,31.62,98.56,48.35l-.42,1.54-.84,1.79-1.05-.44-110.65-54.38c.08-.39-.05-.93,0-1.37Z"/>
    <path class="cls-2" d="M145.56,227.19c-.58.63-1.26.62-1.82,0,.6-.03,1.22,0,1.82,0Z"/>
    <path class="cls-2" d="M130.54,227.65c-.15,0-.3,0-.46,0l.23-.45.23.45Z"/>
    <path d="M192.91,221.28l19.04,84.55c.14.58-.24.76-.7.94-1.24.5-9.12,1.25-9.27,2.19l8.68,51.16c-1.21.28-2.4.64-3.64.91l-8.67-51.43-11.36,2.27-12.75-86.95c.12-.02.49-.39.91-.46,5.98-.91,11.83-1.91,17.75-3.19Z"/>
    <path d="M224.32,212.17l29.95,79.1.08,1-10.02,3.93,15.95,47.99c-.97.4-2.12.94-3.19,1.37l-15.94-48.26-10.01,3.19-24.59-82.4c5.82-1.67,12.19-3.74,17.75-5.92Z"/>
    <path d="M243.94,202.61l63.76,118.31c-.17.11-.29.81-.46.92-.7.43-2.43.71-2.77.92l-63.3-118.31c.55-.3,1.72-1.23,2.77-1.83Z"/>
    <path d="M273.94,180.3l51.39,63.61c.37,2.46-6.56,4.8-5.79,7.53l27.7,37.66c-1.33,1.19-1.17,1.12-2.73,2.28l-27.76-37.57c-.49-.42-.86-.21-1.36.02-1.77.79-4.76,4.41-6.6,5.71-.4.28-.63.77-1.16.23l-47.79-67.62c1.15-.9,2.89-3.1,4.1-4.1,2.87-2.37,7.45-5.43,10.02-7.74Z"/>
    <path d="M293.97,158l59.21,53.92c.38.37.52.76.38,1.29-.36,1.32-4.22,4.68-4.74,5.79-.23.5-.35.86,0,1.35l33.29,33.33c-.48.74-.92,1.46-1.33,2.03-.27.38-.67.64-.83.82l-33.87-33.88c-.83-.19-5.18,6.37-6.09,7.43-.4.47-.46.52-.95.07l-56.44-58.51c3.59-4.03,8.2-9.47,11.38-13.66Z"/>
    <path class="cls-3" d="M3.38,290.89s-11.19-51.79,28.98-93.19c0,0,27.74-33.08,95.47-16.92,56.85,13.56,114.4,7.1,146.5-47.88,10.54-18.06,15.33-36.38,17.33-58.9C293.64,51.72,292.09,17.75,279.84,0,279.84,0,335.19,5.1,325.24,100.28c-4.98,47.59-35.87,78.52-65.51,97.55-25.71,16.5-54.99,26.61-85.34,30.17-16.08,1.89-37.2,3.57-57.59,2.81-40.95-1.54-105.89,14.92-113.42,60.09Z"/>
    <path class="cls-7" d="M156.05,368.35s56.48,53.64,104.58,28.11c48.1-25.53,121.47-142.77,121.47-142.77,0,0-116.41,102.53-226.05,114.66Z"/>
    <path class="cls-4" d="M408.03,213.04c-6.97,12.53-15.83,26.21-25.93,40.64-14.77,12.33-28.81,23.43-41.57,32.33-14.92,10.45-29.04,19.97-41.19,27.17-10.71,6.83-27.01,15.39-44.86,24.44,0,0-31.05,14.28-48.12,19.5-14.29,4.38-30.12,9.78-50.31,11.21-16.48,1.17-53.99-.81-53.89-.38l-.8,6.14s117.95,27.91,282.06-114.7c2.15-1.86,4.06-3.98,5.68-6.31l21.78-31.27-2.85-8.79Z"/>
  </g>
</svg>